<?xml version="1.0" encoding="utf-8"?>
<!-- Generator: Adobe Illustrator 25.0.0, SVG Export Plug-In . SVG Version: 6.00 Build 0)  -->
<svg version="1.1" id="Layer_1" xmlns="http://www.w3.org/2000/svg" xmlns:xlink="http://www.w3.org/1999/xlink" x="0px" y="0px"
	 viewBox="0 0 229 46" style="enable-background:new 0 0 229 46;" xml:space="preserve">
<style type="text/css">
	.st0{fill:#333333;}
	.st1{fill:#4EC425;}
</style>
<g>
	<g>
		<path class="st0" d="M93.81,44.05c0.02,0.25,0.08,0.44,0.18,0.57c0.18,0.24,0.51,0.36,0.97,0.36c0.28,0,0.52-0.06,0.74-0.18
			c0.21-0.12,0.32-0.31,0.33-0.56c0-0.19-0.08-0.34-0.25-0.44c-0.11-0.06-0.32-0.13-0.64-0.21l-0.59-0.15
			c-0.38-0.1-0.66-0.2-0.84-0.32c-0.32-0.2-0.48-0.48-0.47-0.84c0.01-0.42,0.16-0.76,0.47-1.02c0.31-0.26,0.72-0.39,1.23-0.39
			c0.67,0,1.15,0.2,1.44,0.59c0.18,0.25,0.27,0.52,0.26,0.81h-0.71c-0.01-0.17-0.07-0.32-0.17-0.46c-0.17-0.2-0.47-0.3-0.89-0.3
			c-0.28,0-0.5,0.05-0.65,0.16c-0.15,0.11-0.22,0.25-0.23,0.43c0,0.19,0.09,0.35,0.28,0.47c0.11,0.07,0.27,0.13,0.49,0.18l0.49,0.12
			c0.54,0.13,0.9,0.26,1.08,0.38c0.29,0.19,0.43,0.49,0.42,0.9c-0.01,0.4-0.16,0.74-0.47,1.03c-0.31,0.29-0.77,0.43-1.38,0.43
			c-0.66,0-1.13-0.15-1.4-0.45c-0.27-0.3-0.41-0.67-0.42-1.12H93.81z"/>
		<path class="st0" d="M97.94,41.01h0.76l-0.08,4.44h-0.76L97.94,41.01z M97.97,39.33h0.76l-0.02,0.85h-0.76L97.97,39.33z"/>
		<path class="st0" d="M100.08,40.99h0.71l-0.01,0.63c0.22-0.26,0.44-0.45,0.68-0.56c0.24-0.11,0.5-0.17,0.79-0.17
			c0.63,0,1.06,0.22,1.27,0.66c0.12,0.24,0.17,0.59,0.17,1.04l-0.05,2.86h-0.76l0.05-2.81c0.01-0.27-0.03-0.49-0.11-0.66
			c-0.13-0.28-0.37-0.42-0.72-0.42c-0.18,0-0.32,0.02-0.44,0.05c-0.21,0.06-0.39,0.18-0.55,0.37c-0.13,0.15-0.21,0.3-0.25,0.46
			c-0.04,0.16-0.06,0.38-0.07,0.67l-0.04,2.34h-0.75L100.08,40.99z"/>
		<path class="st0" d="M108.57,42.49h-0.73c-0.04-0.28-0.14-0.5-0.29-0.69c-0.15-0.18-0.41-0.27-0.76-0.27
			c-0.48,0-0.82,0.23-1.04,0.7c-0.14,0.3-0.21,0.68-0.22,1.12c-0.01,0.45,0.08,0.82,0.26,1.13c0.18,0.3,0.48,0.46,0.89,0.46
			c0.31,0,0.56-0.09,0.74-0.29c0.19-0.19,0.31-0.45,0.39-0.78h0.73c-0.09,0.59-0.31,1.03-0.65,1.3c-0.34,0.27-0.77,0.41-1.29,0.41
			c-0.58,0-1.04-0.21-1.38-0.64c-0.34-0.43-0.5-0.96-0.49-1.6c0.01-0.78,0.22-1.39,0.6-1.83c0.39-0.44,0.88-0.65,1.47-0.65
			c0.5,0,0.91,0.12,1.22,0.37C108.33,41.47,108.51,41.89,108.57,42.49z"/>
		<path class="st0" d="M113.04,41.69c0.15,0.22,0.24,0.49,0.29,0.79c0.04,0.21,0.06,0.53,0.05,0.98h-3.27c0,0.45,0.1,0.82,0.3,1.09
			c0.2,0.27,0.5,0.41,0.92,0.41c0.39,0,0.71-0.13,0.94-0.39c0.14-0.15,0.24-0.32,0.3-0.52h0.74c-0.02,0.16-0.09,0.35-0.2,0.55
			c-0.11,0.2-0.24,0.37-0.38,0.49c-0.23,0.22-0.52,0.37-0.85,0.45c-0.18,0.04-0.39,0.07-0.62,0.07c-0.56,0-1.02-0.2-1.4-0.61
			c-0.38-0.41-0.56-0.97-0.55-1.7c0.01-0.72,0.22-1.3,0.61-1.74c0.4-0.45,0.91-0.67,1.54-0.67c0.32,0,0.62,0.07,0.92,0.22
			C112.67,41.26,112.89,41.45,113.04,41.69z M112.61,42.86c-0.02-0.33-0.09-0.59-0.2-0.78c-0.2-0.36-0.54-0.54-1.02-0.54
			c-0.34,0-0.64,0.12-0.87,0.37c-0.24,0.25-0.37,0.56-0.39,0.95H112.61z"/>
		<path class="st0" d="M117.48,41.22l0.01-0.57c0.54-0.05,0.92-0.14,1.14-0.26c0.22-0.12,0.38-0.42,0.5-0.88h0.59l-0.11,5.94h-0.8
			l0.07-4.22H117.48z"/>
		<path class="st0" d="M122.73,44.01c0.01,0.41,0.17,0.7,0.46,0.86c0.15,0.08,0.32,0.13,0.52,0.13c0.36,0,0.67-0.15,0.92-0.45
			c0.26-0.3,0.45-0.9,0.57-1.82c-0.17,0.26-0.38,0.45-0.63,0.56c-0.25,0.11-0.51,0.16-0.8,0.16c-0.57,0-1.03-0.18-1.35-0.54
			c-0.33-0.36-0.49-0.82-0.48-1.38c0.01-0.54,0.18-1.02,0.52-1.43c0.34-0.41,0.83-0.62,1.47-0.62c0.87,0,1.46,0.39,1.78,1.17
			c0.18,0.43,0.26,0.97,0.25,1.62c-0.01,0.73-0.14,1.38-0.36,1.94c-0.38,0.94-1.01,1.41-1.88,1.41c-0.58,0-1.02-0.15-1.32-0.46
			c-0.3-0.31-0.44-0.69-0.43-1.15H122.73z M125.1,41.46c0.01-0.44-0.1-0.77-0.31-0.98c-0.22-0.22-0.5-0.32-0.84-0.32
			c-0.37,0-0.66,0.12-0.88,0.37c-0.22,0.25-0.33,0.57-0.34,0.99c0,0.39,0.08,0.7,0.27,0.93c0.18,0.23,0.48,0.34,0.9,0.34
			c0.3,0,0.57-0.1,0.82-0.29S125.09,41.95,125.1,41.46z"/>
		<path class="st0" d="M127.44,41.96c-0.21-0.22-0.32-0.51-0.31-0.87c0.01-0.44,0.18-0.83,0.5-1.15c0.33-0.32,0.79-0.48,1.38-0.48
			c0.57,0,1.02,0.15,1.34,0.45c0.32,0.3,0.48,0.65,0.47,1.06c-0.01,0.37-0.11,0.67-0.3,0.9c-0.11,0.13-0.27,0.26-0.5,0.38
			c0.24,0.11,0.44,0.25,0.58,0.39c0.26,0.28,0.39,0.64,0.38,1.08c-0.01,0.52-0.19,0.97-0.55,1.33c-0.36,0.37-0.86,0.55-1.51,0.55
			c-0.58,0-1.07-0.16-1.46-0.47s-0.59-0.77-0.58-1.37c0.01-0.35,0.1-0.66,0.27-0.91c0.18-0.26,0.44-0.45,0.78-0.59
			C127.72,42.18,127.56,42.08,127.44,41.96z M130.17,43.81c0.01-0.39-0.11-0.68-0.34-0.88c-0.23-0.2-0.53-0.3-0.9-0.3
			c-0.36,0-0.65,0.1-0.88,0.31c-0.23,0.2-0.35,0.49-0.36,0.85c-0.01,0.31,0.09,0.58,0.3,0.81c0.2,0.23,0.52,0.34,0.96,0.34
			c0.35,0,0.64-0.09,0.87-0.28C130.04,44.47,130.16,44.19,130.17,43.81z M130.02,41.05c0-0.22-0.08-0.43-0.26-0.61
			c-0.17-0.19-0.44-0.28-0.81-0.28c-0.36,0-0.62,0.09-0.79,0.28c-0.16,0.19-0.25,0.41-0.25,0.65c0,0.28,0.1,0.5,0.3,0.66
			c0.2,0.16,0.45,0.24,0.73,0.24c0.33,0,0.59-0.09,0.78-0.28C129.92,41.52,130.02,41.3,130.02,41.05z"/>
		<path class="st0" d="M132.44,41.96c-0.22-0.22-0.32-0.51-0.31-0.87c0.01-0.44,0.18-0.83,0.5-1.15s0.79-0.48,1.38-0.48
			c0.57,0,1.02,0.15,1.34,0.45c0.32,0.3,0.48,0.65,0.47,1.06c-0.01,0.37-0.11,0.67-0.3,0.9c-0.11,0.13-0.27,0.26-0.5,0.38
			c0.24,0.11,0.44,0.25,0.58,0.39c0.26,0.28,0.39,0.64,0.38,1.08c-0.01,0.52-0.19,0.97-0.55,1.33c-0.36,0.37-0.86,0.55-1.51,0.55
			c-0.58,0-1.07-0.16-1.46-0.47c-0.4-0.32-0.59-0.77-0.58-1.37c0.01-0.35,0.1-0.66,0.27-0.91c0.18-0.26,0.44-0.45,0.78-0.59
			C132.71,42.18,132.55,42.08,132.44,41.96z M135.16,43.81c0-0.39-0.11-0.68-0.34-0.88s-0.53-0.3-0.9-0.3
			c-0.36,0-0.65,0.1-0.88,0.31c-0.23,0.2-0.35,0.49-0.36,0.85c-0.01,0.31,0.09,0.58,0.3,0.81c0.2,0.23,0.52,0.34,0.96,0.34
			c0.35,0,0.64-0.09,0.87-0.28C135.03,44.47,135.15,44.19,135.16,43.81z M135.01,41.05c0-0.22-0.08-0.43-0.25-0.61
			c-0.17-0.19-0.44-0.28-0.81-0.28c-0.36,0-0.62,0.09-0.79,0.28c-0.17,0.19-0.25,0.41-0.25,0.65c0,0.28,0.1,0.5,0.3,0.66
			c0.2,0.16,0.45,0.24,0.73,0.24c0.33,0,0.59-0.09,0.78-0.28C134.91,41.52,135.01,41.3,135.01,41.05z"/>
	</g>
</g>
<rect x="0.5" y="42.96" class="st0" width="86.06" height="0.35"/>
<rect x="142.58" y="42.96" class="st0" width="85.92" height="0.35"/>
<g>
	<path class="st1" d="M7.44,23.57h3.22l0.14-4.44l-0.22-18.5l8.16,0.33l-0.33,14.34v1.16c0,0.25,0.04,1.41,0.04,3.47
		c0,6.11-3.47,9.29-9.72,9.29c-6,0-8.24-2.93-8.24-9.1v-1.19c0-0.14,0.04-0.65,0.04-1.55h6.9V23.57z"/>
	<path class="st1" d="M27.68,10.23h3.58l-0.43,13.12h5.78c0.14-2.93,0.18-5.35,0.18-7.26c0-1.01-0.07-3.14-0.22-6.36l7.05,0.18
		l-0.18,7.98l0.18,9.47l-5.49-0.14l-0.22-1.3c-1.99,1.92-4.34,2.89-6.86,2.89c-4.44,0-6.94-2.31-6.94-6.75
		c0-2.2,0.18-3.98,0.18-5.24V16.3l-0.36-6.25L27.68,10.23z"/>
	<path class="st1" d="M196.11,19.89c0-3.32-0.04-6.54-0.22-9.57h5.85l0.15,2.2c1.52-2.13,4.01-3.4,6.83-3.4
		c2.64,0,4.8,1.34,5.6,3.43c1.26-2.2,3.61-3.32,7.05-3.32c4.3,0,6.86,2.28,6.9,6.5l0.14,12.46l-7.15-0.22
		c0.07-1.26,0.07-2.64,0.07-4.01c0-0.47-0.04-1.84-0.11-4.23l-0.33-4.66l-4.95-0.11l-0.04,12.83c-2.53-0.22-4.44-0.33-5.78-0.33
		c-0.61,0-1.19,0.04-1.81,0.04l-0.04-12.03l-5.2,0.18c-0.15,1.7-0.18,3.43-0.18,5.09v1.48c0.07,1.05,0.07,2.1,0.07,3.14
		c0,0.83,0,1.63-0.04,2.42c-2.64,0.07-5.02,0.14-7.15,0.25C196.07,25.38,196.11,22.67,196.11,19.89"/>
	<path class="st1" d="M56.3,27.61l-6.58,0.22c0.29-5.78,0.33-9.39,0.33-10.84v-1.3c0-1.55-0.04-3.29-0.22-5.24l5.24,0.33l0.4,1.92
		c2.71-2.17,5.46-3.25,8.02-3.25c3.72,0,5.31,1.99,5.31,5.93c0,0.33,0,0.61-0.04,0.98l-0.22,3.76c-0.07,2.49-0.07,4.26-0.07,5.35
		c0,0.94,0.04,1.99,0.11,3.14c-2.24-0.14-4.55-0.25-6.94-0.25l0.29-7.15l-0.54-5.92l-4.99,0.29l0.14,5.31
		C56.45,22.73,56.37,24.97,56.3,27.61"/>
	<path class="st1" d="M80.92,14.42v7.22l6.86-0.14l-0.18-6.83L80.92,14.42z M81.39,27.25c-5.13,0-8.27-3.22-8.27-9
		c0-5.89,3.14-9.21,8.56-9.21c2.71,0,4.8,0.79,6.21,2.35l0.9-1.77l4.55,0.11v15.83c0,3.32-0.07,5.67-0.9,7.15
		c-1.44,2.53-4.73,4.12-9.47,4.12c-6.79,0-9.94-2.35-9.94-7.44c0-0.33,0-0.65,0.04-1.01l6.79,0.43l-0.07,3.11l5.71,0.04l0.04-5.64
		C84.17,27,82.87,27.25,81.39,27.25"/>
	<path class="st1" d="M99.11,14.03c0-3.36,0-7.66-0.07-12.9l7.33,0.29l-0.47,17.45l0.25,9.25l-7.19-0.4
		C99.07,23.1,99.11,18.51,99.11,14.03"/>
	<path class="st1" d="M124.17,17.1l-0.32-3.69l-5.35,0.11v3.58H124.17z M130.63,22.26c-0.65,4.15-4.01,6.72-9.29,6.72
		c-6.65,0-10.66-3.83-10.66-9.68c0-6.18,3.97-10.26,10.15-10.26s10.15,4.05,10.15,10.73v0.69c-2.49,0-4.88-0.04-7.19-0.04
		c-1.7,0-3.87,0.14-6.5,0.36c0,1.27,0.11,2.42,0.33,3.58l5.74,0.07l0.22-1.95L130.63,22.26z"/>
	<path class="st1" d="M163.71,25.78c-1.44,2.38-3.69,3.36-7.15,3.36c-7.8,0-12.5-5.06-12.5-14.23c0-9.57,4.66-14.45,13.8-14.45
		c7.8,0,11.96,3.69,11.96,10.22c0,0.04,0.04,0.22,0.04,0.51h-8.78l0.04-4.12l-8.09-0.29v10.55l0.25,5.2h8.89
		c0.14-0.87,0.25-1.77,0.25-2.67c0-0.22-0.04-0.47-0.04-0.72l-4.88-0.18v-4.66l13.04,0.29l-0.58,12.93l-5.38,0.33L163.71,25.78z"/>
	<path class="st1" d="M180.92,9.56l2.42,7.15c0.54,1.59,0.94,3.36,1.19,5.17l2.13-8.09l0.87-4.66l5.46,0.62
		c-1.7,4.99-3.76,11.99-6.4,20.95c-1.19,4.01-2.49,6.18-7.15,6.18c-4.05,0-6.11-1.81-6.11-5.42c0-0.47,0.07-1.08,0.15-1.81
		l5.35,0.61l-0.29,2.42l2.02,0.14l0.76-3.87l-5.53-13.4l-2.31-5.82L180.92,9.56z"/>
</g>
</svg>
