<svg width="13" height="14" viewBox="0 0 13 14" fill="none" xmlns="http://www.w3.org/2000/svg">
<path d="M2.86864 11.7001C2.85573 11.691 2.84206 11.6825 2.82771 11.6746C2.64785 11.5862 2.40732 11.6055 2.2578 11.7203L2.12232 11.8196C2.07569 11.854 2.03652 11.8933 2.00619 11.9363L1.92231 12.0546V9.11561C1.93084 8.95551 1.77957 8.81454 1.56532 8.78293C1.33029 8.75767 1.11181 8.87688 1.07736 9.0492C1.07411 9.06545 1.07261 9.08185 1.07283 9.09827V12.0498L1.01477 11.9568C0.983384 11.9071 0.940454 11.8617 0.887885 11.8228L0.745947 11.7187C0.596428 11.6039 0.355899 11.5846 0.176043 11.673C-0.0156134 11.7759 -0.0572272 11.9732 0.0831115 12.1137C0.0944558 12.1251 0.106822 12.1359 0.120128 12.146L1.19542 12.9344C1.3633 13.0576 1.63563 13.0577 1.8037 12.9346L2.87932 12.146C3.04431 12.0207 3.03953 11.8211 2.86864 11.7001Z" fill="#A3A3A3"/>
<path d="M0.131357 8.3535C0.14426 8.36264 0.157929 8.37116 0.172283 8.37904C0.352129 8.46744 0.592643 8.44815 0.742154 8.33332L0.877632 8.23399C0.924257 8.19969 0.963422 8.16035 0.993757 8.11733L1.07762 7.99908L1.07762 10.9379C1.0691 11.098 1.22036 11.2389 1.4346 11.2705C1.66962 11.2958 1.88808 11.1766 1.92252 11.0043C1.92578 10.988 1.92728 10.9716 1.92705 10.9552L1.92705 8.00381L1.98512 8.09683C2.0165 8.14655 2.05943 8.1919 2.11199 8.23084L2.25392 8.3349C2.40343 8.44972 2.64395 8.46902 2.82379 8.38062C3.01544 8.27774 3.05705 8.08043 2.91672 7.93992C2.90538 7.92857 2.89301 7.91778 2.87971 7.90764L1.80448 7.11934C1.63661 6.99612 1.36429 6.99602 1.19624 7.11909L0.120673 7.90764C-0.0443077 8.03293 -0.0395232 8.23255 0.131357 8.3535Z" fill="#A3A3A3"/>
<path d="M2.86864 11.7001C2.85573 11.691 2.84206 11.6825 2.82771 11.6746C2.64785 11.5862 2.40732 11.6055 2.2578 11.7203L2.12232 11.8196C2.07569 11.854 2.03652 11.8933 2.00619 11.9363L1.92231 12.0546V9.11561C1.93084 8.95551 1.77957 8.81454 1.56532 8.78293C1.33029 8.75767 1.11181 8.87688 1.07736 9.0492C1.07411 9.06545 1.07261 9.08185 1.07283 9.09827V12.0498L1.01477 11.9568C0.983384 11.9071 0.940454 11.8617 0.887885 11.8228L0.745947 11.7187C0.596428 11.6039 0.355899 11.5846 0.176043 11.673C-0.0156134 11.7759 -0.0572272 11.9732 0.0831115 12.1137C0.0944558 12.1251 0.106822 12.1359 0.120128 12.146L1.19542 12.9344C1.3633 13.0576 1.63563 13.0577 1.8037 12.9346L2.87932 12.146C3.04431 12.0207 3.03953 11.8211 2.86864 11.7001Z" fill="#A3A3A3"/>
<path d="M0.131357 8.3535C0.14426 8.36264 0.157929 8.37116 0.172283 8.37904C0.352129 8.46744 0.592643 8.44815 0.742154 8.33332L0.877632 8.23399C0.924257 8.19969 0.963422 8.16035 0.993757 8.11733L1.07762 7.99908L1.07762 10.9379C1.0691 11.098 1.22036 11.2389 1.4346 11.2705C1.66962 11.2958 1.88808 11.1766 1.92252 11.0043C1.92578 10.988 1.92728 10.9716 1.92705 10.9552L1.92705 8.00381L1.98512 8.09683C2.0165 8.14655 2.05943 8.1919 2.11199 8.23084L2.25392 8.3349C2.40343 8.44972 2.64395 8.46902 2.82379 8.38062C3.01544 8.27774 3.05705 8.08043 2.91672 7.93992C2.90538 7.92857 2.89301 7.91778 2.87971 7.90764L1.80448 7.11934C1.63661 6.99612 1.36429 6.99602 1.19624 7.11909L0.120673 7.90764C-0.0443077 8.03293 -0.0395232 8.23255 0.131357 8.3535Z" fill="#A3A3A3"/>
<rect x="5" y="7.02686" width="6" height="1" rx="0.5" fill="#A3A3A3"/>
<rect width="6.74498" height="2" rx="1" transform="matrix(-0.741111 -0.671383 -0.671383 0.741111 12.9004 4.52832)" fill="#A3A3A3"/>
<rect width="6" height="1" rx="0.5" transform="matrix(-1 0 0 1 11 7.02686)" fill="#A3A3A3"/>
<rect x="3" y="4.52832" width="6.62444" height="2" rx="1" transform="rotate(-42.1739 3 4.52832)" fill="#A3A3A3"/>
<rect x="12" y="4.02686" width="9" height="2" rx="1" transform="rotate(90 12 4.02686)" fill="#A3A3A3"/>
<rect x="6" y="4.02686" width="9" height="2" rx="1" transform="rotate(90 6 4.02686)" fill="#A3A3A3"/>
</svg>
