<svg width="13" height="12" viewBox="0 0 13 12" fill="none" xmlns="http://www.w3.org/2000/svg">
<path d="M3.82485 9.00992C3.80764 8.99621 3.78942 8.98343 3.77028 8.9716C3.53047 8.839 3.20976 8.86794 3.01041 9.04019L2.82976 9.18919C2.76759 9.24064 2.71536 9.29966 2.67491 9.3642L2.56308 9.54158V5.13314C2.57445 4.89298 2.37276 4.68153 2.08709 4.63411C1.77372 4.59621 1.48242 4.77504 1.43649 5.03351C1.43215 5.05789 1.43014 5.0825 1.43045 5.10712V9.53448L1.35303 9.39494C1.31118 9.32036 1.25394 9.25233 1.18385 9.19392L0.994596 9.03782C0.795237 8.86558 0.474532 8.83663 0.234725 8.96924C-0.0208179 9.12357 -0.0763029 9.41954 0.110815 9.63033C0.125941 9.64735 0.142429 9.66354 0.160171 9.67875L1.59389 10.8613C1.81773 11.0461 2.18084 11.0463 2.40493 10.8616L3.83909 9.67875C4.05908 9.4908 4.0527 9.19136 3.82485 9.00992Z" fill="#A3A3A3"/>
<path d="M0.175143 3.98997C0.192347 4.00367 0.210572 4.01646 0.229711 4.02828C0.469505 4.16088 0.790191 4.13194 0.989538 3.9597L1.17018 3.81071C1.23234 3.75926 1.28456 3.70024 1.32501 3.63571L1.43683 3.45834L1.43683 7.86652C1.42547 8.10667 1.62715 8.3181 1.9128 8.36552C2.22616 8.40342 2.51744 8.2246 2.56337 7.96615C2.5677 7.94177 2.56971 7.91716 2.56941 7.89254L2.56941 3.46543L2.64682 3.60496C2.68867 3.67955 2.7459 3.74757 2.81599 3.80598L3.00523 3.96206C3.20458 4.1343 3.52526 4.16324 3.76506 4.03065C4.02059 3.87632 4.07607 3.58037 3.88896 3.3696C3.87384 3.35257 3.85735 3.33638 3.83961 3.32117L2.40597 2.13872C2.18215 1.9539 1.81906 1.95374 1.59498 2.13835L0.160897 3.32117C-0.0590769 3.50911 -0.0526976 3.80854 0.175143 3.98997Z" fill="#A3A3A3"/>
<rect x="4" width="9" height="2" rx="1" fill="#A3A3A3"/>
<rect x="13" width="12" height="2" rx="1" transform="rotate(90 13 0)" fill="#A3A3A3"/>
<rect x="6" y="1" width="8" height="1" rx="0.5" transform="rotate(90 6 1)" fill="#A3A3A3"/>
<rect x="10" y="1" width="8" height="1" rx="0.5" transform="rotate(90 10 1)" fill="#A3A3A3"/>
<rect x="5" y="8" width="5" height="1" rx="0.5" fill="#A3A3A3"/>
</svg>
