<svg width="14" height="14" viewBox="0 0 14 14" fill="none" xmlns="http://www.w3.org/2000/svg">
<path d="M5.57468 13.8861C5.58919 13.8749 5.60274 13.863 5.61527 13.8506C5.75573 13.6947 5.72507 13.4862 5.54261 13.3567L5.38479 13.2392C5.33028 13.1988 5.26776 13.1649 5.1994 13.1386L5.01151 13.0659L9.68119 13.0659C9.93558 13.0733 10.1596 12.9422 10.2098 12.7565C10.2499 12.5528 10.0605 12.3635 9.78672 12.3336C9.76091 12.3308 9.73484 12.3295 9.70875 12.3297L5.01903 12.3297L5.16684 12.2794C5.24584 12.2522 5.3179 12.215 5.37978 12.1694L5.54512 12.0464C5.72757 11.9168 5.75823 11.7083 5.61777 11.5525C5.45429 11.3864 5.14078 11.3503 4.91751 11.4719C4.89947 11.4818 4.88232 11.4925 4.86621 11.504L3.61361 12.4359C3.41783 12.5814 3.41766 12.8174 3.61322 12.9631L4.86621 13.8953C5.0653 14.0383 5.38248 14.0342 5.57468 13.8861Z" fill="#A3A3A3"/>
<path d="M10.8921 11.5137C10.8776 11.5249 10.8641 11.5368 10.8515 11.5492C10.7111 11.7051 10.7417 11.9135 10.9242 12.0431L11.082 12.1605C11.1365 12.2009 11.199 12.2349 11.2674 12.2612L11.4552 12.3338L6.78583 12.3338C6.53146 12.3265 6.30749 12.4575 6.25726 12.6432C6.21712 12.8469 6.40653 13.0362 6.6803 13.0661C6.70612 13.0689 6.73219 13.0702 6.75827 13.07L11.4477 13.07L11.2999 13.1203C11.2209 13.1475 11.1489 13.1847 11.087 13.2303L10.9217 13.3533C10.7392 13.4829 10.7086 13.6913 10.849 13.8472C11.0125 14.0133 11.326 14.0493 11.5492 13.9277C11.5673 13.9179 11.5844 13.9072 11.6005 13.8956L12.8531 12.9638C13.0488 12.8183 13.049 12.5823 12.8535 12.4366L11.6005 11.5045C11.4015 11.3615 11.0843 11.3656 10.8921 11.5137Z" fill="#A3A3A3"/>
<rect x="3.4668" y="1" width="0.866667" height="9.53333" fill="#A3A3A3"/>
<rect x="3.4668" y="1.8667" width="0.866667" height="9.53333" transform="rotate(-90 3.4668 1.8667)" fill="#A3A3A3"/>
<rect x="3.4668" y="10.5332" width="0.866667" height="9.53333" transform="rotate(-90 3.4668 10.5332)" fill="#A3A3A3"/>
<rect x="12.1333" y="1" width="0.866667" height="9.53333" fill="#A3A3A3"/>
<path d="M9.80566 10.0762C9.15439 8.97 5.0219 7.54932 3.94899 8.6176" stroke="#A3A3A3"/>
<path d="M12.8364 9.04693C8.01203 8.05603 5.95307 5.03958 3.99236 6.78419" stroke="#A3A3A3"/>
<path d="M12.6582 7.60352C11.3873 7.17474 5.46278 3.29701 3.89186 5.03481" stroke="#A3A3A3"/>
<path d="M12.813 5.99219C11.5195 5.55987 5.48453 1.66484 3.89165 3.3992" stroke="#A3A3A3"/>
<path d="M12.813 4.25928C11.5469 3.83126 6.06659 0.566846 4.07965 1.69574" stroke="#A3A3A3"/>
<path d="M12.5142 1.92871C11.8794 1.89514 9.72565 1.36708 8.0011 1.75143" stroke="#A3A3A3"/>
<path d="M2.48615 8.42532C2.47497 8.41081 2.46312 8.39726 2.45068 8.38473C2.2948 8.24427 2.08635 8.27493 1.95676 8.45739L1.83934 8.61521C1.79893 8.66972 1.76499 8.73224 1.73869 8.8006L1.66601 8.98849V4.31881C1.67339 4.06442 1.54229 3.84044 1.35661 3.79021C1.15291 3.75006 0.963572 3.93949 0.933716 4.21328C0.930897 4.23909 0.929592 4.26516 0.92979 4.29125V8.98097L0.879467 8.83316C0.852266 8.75416 0.81506 8.6821 0.7695 8.62022L0.646487 8.45488C0.516904 8.27243 0.308446 8.24177 0.152571 8.38223C-0.0135316 8.54571 -0.0495969 8.85922 0.07203 9.08249C0.0818617 9.10053 0.0925787 9.11768 0.104111 9.13379L1.03603 10.3864C1.18152 10.5822 1.41754 10.5823 1.5632 10.3868L2.49541 9.13379C2.6384 8.9347 2.63426 8.61752 2.48615 8.42532Z" fill="#A3A3A3"/>
<path d="M0.113843 3.10789C0.125025 3.12241 0.136872 3.13595 0.149312 3.14847C0.305178 3.28893 0.513624 3.25827 0.6432 3.07583L0.760615 2.91801C0.801023 2.86351 0.834966 2.80099 0.861256 2.73264L0.933941 2.54476L0.933941 7.21417C0.926556 7.46854 1.05765 7.69251 1.24332 7.74274C1.447 7.78288 1.63633 7.59347 1.66619 7.3197C1.66901 7.29388 1.67031 7.26781 1.67011 7.24173L1.67011 2.55227L1.72043 2.70007C1.74763 2.77907 1.78484 2.85113 1.83039 2.913L1.9534 3.07833C2.08298 3.26078 2.29142 3.29144 2.44729 3.15098C2.61338 2.98751 2.64944 2.67402 2.52782 2.45076C2.51799 2.43272 2.50728 2.41558 2.49574 2.39947L1.56388 1.14694C1.41839 0.951171 1.18239 0.950999 1.03674 1.14655L0.104583 2.39947C-0.0384 2.59854 -0.0342534 2.91571 0.113843 3.10789Z" fill="#A3A3A3"/>
</svg>
